<mxfile host="app.diagrams.net" modified="2023-05-05T10:02:28.460Z" agent="Mozilla/5.0 (Macintosh; Intel Mac OS X 10_15_7) AppleWebKit/537.36 (KHTML, like Gecko) Chrome/113.0.0.0 Safari/537.36" etag="k-CTCo9fycFtUunhDpQo" version="21.2.9" type="github">
  <diagram name="Page-1" id="74e2e168-ea6b-b213-b513-2b3c1d86103e">
    <mxGraphModel dx="1620" dy="746" grid="1" gridSize="10" guides="1" tooltips="1" connect="1" arrows="1" fold="1" page="1" pageScale="1" pageWidth="1100" pageHeight="850" background="none" math="0" shadow="0">
      <root>
        <mxCell id="0" />
        <mxCell id="1" parent="0" />
        <mxCell id="n0jJVnxUDAGsLWo01qbZ-8" value="" style="edgeStyle=orthogonalEdgeStyle;rounded=0;orthogonalLoop=1;jettySize=auto;html=1;" edge="1" parent="1" source="n0jJVnxUDAGsLWo01qbZ-2" target="n0jJVnxUDAGsLWo01qbZ-5">
          <mxGeometry relative="1" as="geometry" />
        </mxCell>
        <mxCell id="n0jJVnxUDAGsLWo01qbZ-2" value="result" style="rounded=1;whiteSpace=wrap;html=1;" vertex="1" parent="1">
          <mxGeometry x="60" y="40" width="110" height="60" as="geometry" />
        </mxCell>
        <mxCell id="n0jJVnxUDAGsLWo01qbZ-11" value="true" style="edgeStyle=orthogonalEdgeStyle;rounded=0;orthogonalLoop=1;jettySize=auto;html=1;strokeColor=#0000CC;" edge="1" parent="1" source="n0jJVnxUDAGsLWo01qbZ-5" target="n0jJVnxUDAGsLWo01qbZ-9">
          <mxGeometry relative="1" as="geometry" />
        </mxCell>
        <mxCell id="n0jJVnxUDAGsLWo01qbZ-34" style="edgeStyle=orthogonalEdgeStyle;rounded=0;orthogonalLoop=1;jettySize=auto;html=1;entryX=0;entryY=0.5;entryDx=0;entryDy=0;" edge="1" parent="1" source="n0jJVnxUDAGsLWo01qbZ-5" target="n0jJVnxUDAGsLWo01qbZ-28">
          <mxGeometry relative="1" as="geometry">
            <Array as="points">
              <mxPoint x="265" y="420" />
              <mxPoint x="580" y="420" />
              <mxPoint x="580" y="490" />
            </Array>
          </mxGeometry>
        </mxCell>
        <mxCell id="n0jJVnxUDAGsLWo01qbZ-5" value="&lt;meta charset=&quot;utf-8&quot;&gt;&lt;span style=&quot;color: rgb(50, 50, 50); font-family: 微软雅黑; font-size: 13px; font-style: normal; font-variant-ligatures: normal; font-variant-caps: normal; font-weight: 400; letter-spacing: normal; orphans: 2; text-align: center; text-indent: 0px; text-transform: none; widows: 2; word-spacing: 0px; -webkit-text-stroke-width: 0px; caret-color: rgb(50, 50, 50); background-color: rgba(255, 255, 255, 0.01); text-decoration-thickness: initial; text-decoration-style: initial; text-decoration-color: initial; float: none; display: inline !important;&quot;&gt;转换成数据模型或字典？&lt;/span&gt;" style="rhombus;whiteSpace=wrap;html=1;" vertex="1" parent="1">
          <mxGeometry x="220" y="25" width="90" height="95" as="geometry" />
        </mxCell>
        <mxCell id="n0jJVnxUDAGsLWo01qbZ-17" value="" style="edgeStyle=orthogonalEdgeStyle;rounded=0;orthogonalLoop=1;jettySize=auto;html=1;" edge="1" parent="1" source="n0jJVnxUDAGsLWo01qbZ-9" target="n0jJVnxUDAGsLWo01qbZ-12">
          <mxGeometry relative="1" as="geometry" />
        </mxCell>
        <mxCell id="n0jJVnxUDAGsLWo01qbZ-9" value="&lt;meta charset=&quot;utf-8&quot;&gt;&lt;span style=&quot;caret-color: rgb(50, 50, 50); color: rgb(50, 50, 50); font-family: 微软雅黑; font-size: 13px; font-style: normal; font-variant-caps: normal; font-weight: 400; letter-spacing: normal; text-align: center; text-indent: 0px; text-transform: none; word-spacing: 0px; text-size-adjust: auto; -webkit-text-stroke-width: 0px; background-color: rgba(255, 255, 255, 0.01); text-decoration: none; float: none; display: inline !important;&quot;&gt;取出error字段&lt;/span&gt;" style="rounded=0;whiteSpace=wrap;html=1;" vertex="1" parent="1">
          <mxGeometry x="372" y="40" width="100" height="60" as="geometry" />
        </mxCell>
        <mxCell id="n0jJVnxUDAGsLWo01qbZ-18" value="" style="edgeStyle=orthogonalEdgeStyle;rounded=0;orthogonalLoop=1;jettySize=auto;html=1;strokeColor=#0000CC;" edge="1" parent="1" source="n0jJVnxUDAGsLWo01qbZ-12" target="n0jJVnxUDAGsLWo01qbZ-13">
          <mxGeometry relative="1" as="geometry" />
        </mxCell>
        <mxCell id="n0jJVnxUDAGsLWo01qbZ-48" value="true" style="edgeLabel;html=1;align=center;verticalAlign=middle;resizable=0;points=[];" vertex="1" connectable="0" parent="n0jJVnxUDAGsLWo01qbZ-18">
          <mxGeometry x="-0.2308" relative="1" as="geometry">
            <mxPoint as="offset" />
          </mxGeometry>
        </mxCell>
        <mxCell id="n0jJVnxUDAGsLWo01qbZ-22" value="" style="edgeStyle=orthogonalEdgeStyle;rounded=0;orthogonalLoop=1;jettySize=auto;html=1;" edge="1" parent="1" source="n0jJVnxUDAGsLWo01qbZ-12" target="n0jJVnxUDAGsLWo01qbZ-21">
          <mxGeometry relative="1" as="geometry" />
        </mxCell>
        <mxCell id="n0jJVnxUDAGsLWo01qbZ-52" value="false" style="edgeLabel;html=1;align=center;verticalAlign=middle;resizable=0;points=[];" vertex="1" connectable="0" parent="n0jJVnxUDAGsLWo01qbZ-22">
          <mxGeometry x="-0.2333" relative="1" as="geometry">
            <mxPoint as="offset" />
          </mxGeometry>
        </mxCell>
        <mxCell id="n0jJVnxUDAGsLWo01qbZ-12" value="&lt;meta charset=&quot;utf-8&quot;&gt;&lt;span style=&quot;caret-color: rgb(50, 50, 50); color: rgb(50, 50, 50); font-family: 微软雅黑; font-size: 13px; font-style: normal; font-variant-caps: normal; font-weight: 400; letter-spacing: normal; text-align: center; text-indent: 0px; text-transform: none; word-spacing: 0px; text-size-adjust: auto; -webkit-text-stroke-width: 0px; background-color: rgba(255, 255, 255, 0.01); text-decoration: none; float: none; display: inline !important;&quot;&gt;error == 0&lt;/span&gt;" style="rhombus;whiteSpace=wrap;html=1;" vertex="1" parent="1">
          <mxGeometry x="541" y="30" width="80" height="80" as="geometry" />
        </mxCell>
        <mxCell id="n0jJVnxUDAGsLWo01qbZ-19" value="" style="edgeStyle=orthogonalEdgeStyle;rounded=0;orthogonalLoop=1;jettySize=auto;html=1;" edge="1" parent="1" source="n0jJVnxUDAGsLWo01qbZ-13" target="n0jJVnxUDAGsLWo01qbZ-14">
          <mxGeometry relative="1" as="geometry" />
        </mxCell>
        <mxCell id="n0jJVnxUDAGsLWo01qbZ-13" value="&lt;meta charset=&quot;utf-8&quot;&gt;&lt;span style=&quot;caret-color: rgb(50, 50, 50); color: rgb(50, 50, 50); font-family: 微软雅黑; font-size: 13px; font-style: normal; font-variant-caps: normal; font-weight: 400; letter-spacing: normal; text-align: center; text-indent: 0px; text-transform: none; word-spacing: 0px; text-size-adjust: auto; -webkit-text-stroke-width: 0px; background-color: rgba(255, 255, 255, 0.01); text-decoration: none; float: none; display: inline !important;&quot;&gt;取出response，转化成数据模型或者字典&lt;/span&gt;" style="rounded=0;whiteSpace=wrap;html=1;" vertex="1" parent="1">
          <mxGeometry x="686" y="40" width="100" height="60" as="geometry" />
        </mxCell>
        <mxCell id="n0jJVnxUDAGsLWo01qbZ-20" value="" style="edgeStyle=orthogonalEdgeStyle;rounded=0;orthogonalLoop=1;jettySize=auto;html=1;strokeColor=#0000CC;" edge="1" parent="1" source="n0jJVnxUDAGsLWo01qbZ-14" target="n0jJVnxUDAGsLWo01qbZ-15">
          <mxGeometry relative="1" as="geometry" />
        </mxCell>
        <mxCell id="n0jJVnxUDAGsLWo01qbZ-49" value="true" style="edgeLabel;html=1;align=center;verticalAlign=middle;resizable=0;points=[];" vertex="1" connectable="0" parent="n0jJVnxUDAGsLWo01qbZ-20">
          <mxGeometry x="-0.024" y="2" relative="1" as="geometry">
            <mxPoint as="offset" />
          </mxGeometry>
        </mxCell>
        <mxCell id="n0jJVnxUDAGsLWo01qbZ-40" value="" style="edgeStyle=orthogonalEdgeStyle;rounded=0;orthogonalLoop=1;jettySize=auto;html=1;" edge="1" parent="1" source="n0jJVnxUDAGsLWo01qbZ-14" target="n0jJVnxUDAGsLWo01qbZ-39">
          <mxGeometry relative="1" as="geometry" />
        </mxCell>
        <mxCell id="n0jJVnxUDAGsLWo01qbZ-53" value="false" style="edgeLabel;html=1;align=center;verticalAlign=middle;resizable=0;points=[];" vertex="1" connectable="0" parent="n0jJVnxUDAGsLWo01qbZ-40">
          <mxGeometry x="-0.1333" y="1" relative="1" as="geometry">
            <mxPoint as="offset" />
          </mxGeometry>
        </mxCell>
        <mxCell id="n0jJVnxUDAGsLWo01qbZ-14" value="&lt;meta charset=&quot;utf-8&quot;&gt;&lt;span style=&quot;caret-color: rgb(50, 50, 50); color: rgb(50, 50, 50); font-family: 微软雅黑; font-size: 13px; font-style: normal; font-variant-caps: normal; font-weight: 400; letter-spacing: normal; text-align: center; text-indent: 0px; text-transform: none; word-spacing: 0px; text-size-adjust: auto; -webkit-text-stroke-width: 0px; background-color: rgba(255, 255, 255, 0.01); text-decoration: none; float: none; display: inline !important;&quot;&gt;model != nil&lt;/span&gt;" style="rhombus;whiteSpace=wrap;html=1;" vertex="1" parent="1">
          <mxGeometry x="889" y="30" width="80" height="80" as="geometry" />
        </mxCell>
        <mxCell id="n0jJVnxUDAGsLWo01qbZ-69" style="edgeStyle=orthogonalEdgeStyle;rounded=0;orthogonalLoop=1;jettySize=auto;html=1;exitX=0.5;exitY=1;exitDx=0;exitDy=0;entryX=0.5;entryY=0;entryDx=0;entryDy=0;strokeColor=#0000CC;" edge="1" parent="1" source="n0jJVnxUDAGsLWo01qbZ-15" target="n0jJVnxUDAGsLWo01qbZ-60">
          <mxGeometry relative="1" as="geometry" />
        </mxCell>
        <mxCell id="n0jJVnxUDAGsLWo01qbZ-70" style="edgeStyle=orthogonalEdgeStyle;rounded=0;orthogonalLoop=1;jettySize=auto;html=1;exitX=0.5;exitY=1;exitDx=0;exitDy=0;entryX=0.5;entryY=0;entryDx=0;entryDy=0;strokeColor=#0000CC;" edge="1" parent="1" source="n0jJVnxUDAGsLWo01qbZ-15" target="n0jJVnxUDAGsLWo01qbZ-61">
          <mxGeometry relative="1" as="geometry" />
        </mxCell>
        <mxCell id="n0jJVnxUDAGsLWo01qbZ-72" value="true" style="edgeLabel;html=1;align=center;verticalAlign=middle;resizable=0;points=[];" vertex="1" connectable="0" parent="n0jJVnxUDAGsLWo01qbZ-70">
          <mxGeometry x="-0.8339" y="-3" relative="1" as="geometry">
            <mxPoint as="offset" />
          </mxGeometry>
        </mxCell>
        <mxCell id="n0jJVnxUDAGsLWo01qbZ-73" style="edgeStyle=orthogonalEdgeStyle;rounded=0;orthogonalLoop=1;jettySize=auto;html=1;exitX=1;exitY=0.5;exitDx=0;exitDy=0;entryX=1;entryY=0.5;entryDx=0;entryDy=0;" edge="1" parent="1" source="n0jJVnxUDAGsLWo01qbZ-15" target="n0jJVnxUDAGsLWo01qbZ-35">
          <mxGeometry relative="1" as="geometry">
            <Array as="points">
              <mxPoint x="1720" y="70" />
              <mxPoint x="1720" y="610" />
            </Array>
          </mxGeometry>
        </mxCell>
        <mxCell id="n0jJVnxUDAGsLWo01qbZ-15" value="&lt;meta charset=&quot;utf-8&quot;&gt;&lt;span style=&quot;caret-color: rgb(50, 50, 50); color: rgb(50, 50, 50); font-family: 微软雅黑; font-size: 13px; font-style: normal; font-variant-caps: normal; font-weight: 400; letter-spacing: normal; text-align: center; text-indent: 0px; text-transform: none; word-spacing: 0px; text-size-adjust: auto; -webkit-text-stroke-width: 0px; background-color: rgba(255, 255, 255, 0.01); text-decoration: none; float: none; display: inline !important;&quot;&gt;action == command&lt;/span&gt;" style="rhombus;whiteSpace=wrap;html=1;" vertex="1" parent="1">
          <mxGeometry x="1094" y="30" width="80" height="80" as="geometry" />
        </mxCell>
        <mxCell id="n0jJVnxUDAGsLWo01qbZ-24" value="" style="edgeStyle=orthogonalEdgeStyle;rounded=0;orthogonalLoop=1;jettySize=auto;html=1;" edge="1" parent="1" source="n0jJVnxUDAGsLWo01qbZ-21" target="n0jJVnxUDAGsLWo01qbZ-23">
          <mxGeometry relative="1" as="geometry" />
        </mxCell>
        <mxCell id="n0jJVnxUDAGsLWo01qbZ-21" value="&lt;meta charset=&quot;utf-8&quot;&gt;&lt;span style=&quot;caret-color: rgb(50, 50, 50); color: rgb(50, 50, 50); font-family: 微软雅黑; font-size: 13px; font-style: normal; font-variant-caps: normal; font-weight: 400; letter-spacing: normal; text-align: center; text-indent: 0px; text-transform: none; word-spacing: 0px; text-size-adjust: auto; -webkit-text-stroke-width: 0px; background-color: rgba(255, 255, 255, 0.01); text-decoration: none; float: none; display: inline !important;&quot;&gt;取出errorMessage&lt;/span&gt;" style="rounded=0;whiteSpace=wrap;html=1;" vertex="1" parent="1">
          <mxGeometry x="521" y="170" width="120" height="60" as="geometry" />
        </mxCell>
        <mxCell id="n0jJVnxUDAGsLWo01qbZ-26" value="" style="edgeStyle=orthogonalEdgeStyle;rounded=0;orthogonalLoop=1;jettySize=auto;html=1;strokeColor=#0000CC;" edge="1" parent="1" source="n0jJVnxUDAGsLWo01qbZ-23" target="n0jJVnxUDAGsLWo01qbZ-25">
          <mxGeometry relative="1" as="geometry" />
        </mxCell>
        <mxCell id="n0jJVnxUDAGsLWo01qbZ-50" value="true" style="edgeLabel;html=1;align=center;verticalAlign=middle;resizable=0;points=[];" vertex="1" connectable="0" parent="n0jJVnxUDAGsLWo01qbZ-26">
          <mxGeometry x="-0.3105" y="-1" relative="1" as="geometry">
            <mxPoint as="offset" />
          </mxGeometry>
        </mxCell>
        <mxCell id="n0jJVnxUDAGsLWo01qbZ-29" value="" style="edgeStyle=orthogonalEdgeStyle;rounded=0;orthogonalLoop=1;jettySize=auto;html=1;" edge="1" parent="1" source="n0jJVnxUDAGsLWo01qbZ-23" target="n0jJVnxUDAGsLWo01qbZ-28">
          <mxGeometry relative="1" as="geometry" />
        </mxCell>
        <mxCell id="n0jJVnxUDAGsLWo01qbZ-51" value="" style="edgeStyle=orthogonalEdgeStyle;rounded=0;orthogonalLoop=1;jettySize=auto;html=1;" edge="1" parent="1" source="n0jJVnxUDAGsLWo01qbZ-23" target="n0jJVnxUDAGsLWo01qbZ-28">
          <mxGeometry relative="1" as="geometry" />
        </mxCell>
        <mxCell id="n0jJVnxUDAGsLWo01qbZ-23" value="&lt;meta charset=&quot;utf-8&quot;&gt;&lt;span style=&quot;caret-color: rgb(50, 50, 50); color: rgb(50, 50, 50); font-family: 微软雅黑; font-size: 13px; font-style: normal; font-variant-caps: normal; font-weight: 400; letter-spacing: normal; text-align: center; text-indent: 0px; text-transform: none; word-spacing: 0px; text-size-adjust: auto; -webkit-text-stroke-width: 0px; background-color: rgba(255, 255, 255, 0.01); text-decoration: none; float: none; display: inline !important;&quot;&gt;是否包含conversation_id&lt;/span&gt;" style="rhombus;whiteSpace=wrap;html=1;" vertex="1" parent="1">
          <mxGeometry x="526" y="280" width="110" height="120" as="geometry" />
        </mxCell>
        <mxCell id="n0jJVnxUDAGsLWo01qbZ-27" style="edgeStyle=orthogonalEdgeStyle;rounded=0;orthogonalLoop=1;jettySize=auto;html=1;entryX=0.5;entryY=1;entryDx=0;entryDy=0;" edge="1" parent="1" source="n0jJVnxUDAGsLWo01qbZ-25" target="n0jJVnxUDAGsLWo01qbZ-2">
          <mxGeometry relative="1" as="geometry" />
        </mxCell>
        <mxCell id="n0jJVnxUDAGsLWo01qbZ-25" value="&lt;meta charset=&quot;utf-8&quot;&gt;&lt;span style=&quot;caret-color: rgb(50, 50, 50); color: rgb(50, 50, 50); font-family: 微软雅黑; font-size: 13px; font-style: normal; font-variant-caps: normal; font-weight: 400; letter-spacing: normal; text-align: center; text-indent: 0px; text-transform: none; word-spacing: 0px; text-size-adjust: auto; -webkit-text-stroke-width: 0px; background-color: rgba(255, 255, 255, 0.01); text-decoration: none; float: none; display: inline !important;&quot;&gt;重新登录，重新发送当前信息&lt;/span&gt;" style="rounded=0;whiteSpace=wrap;html=1;" vertex="1" parent="1">
          <mxGeometry x="55" y="310" width="120" height="60" as="geometry" />
        </mxCell>
        <mxCell id="n0jJVnxUDAGsLWo01qbZ-36" value="" style="edgeStyle=orthogonalEdgeStyle;rounded=0;orthogonalLoop=1;jettySize=auto;html=1;" edge="1" parent="1" source="n0jJVnxUDAGsLWo01qbZ-28" target="n0jJVnxUDAGsLWo01qbZ-35">
          <mxGeometry relative="1" as="geometry" />
        </mxCell>
        <mxCell id="n0jJVnxUDAGsLWo01qbZ-28" value="&lt;meta charset=&quot;utf-8&quot;&gt;&lt;div style=&quot;caret-color: rgb(0, 0, 0); color: rgb(0, 0, 0); font-style: normal; font-variant-caps: normal; font-weight: 400; letter-spacing: normal; text-align: start; text-indent: 0px; text-transform: none; word-spacing: 0px; text-size-adjust: auto; -webkit-text-stroke-width: 0px; text-decoration: none;&quot; class=&quot;mind-clipboard&quot;&gt;数据异常或聊天无法响应。&lt;div&gt;响应默认回应&lt;/div&gt;&lt;/div&gt;" style="rounded=0;whiteSpace=wrap;html=1;" vertex="1" parent="1">
          <mxGeometry x="521" y="460" width="120" height="60" as="geometry" />
        </mxCell>
        <mxCell id="n0jJVnxUDAGsLWo01qbZ-38" value="" style="edgeStyle=orthogonalEdgeStyle;rounded=0;orthogonalLoop=1;jettySize=auto;html=1;" edge="1" parent="1" source="n0jJVnxUDAGsLWo01qbZ-35" target="n0jJVnxUDAGsLWo01qbZ-37">
          <mxGeometry relative="1" as="geometry" />
        </mxCell>
        <mxCell id="n0jJVnxUDAGsLWo01qbZ-35" value="&lt;meta charset=&quot;utf-8&quot;&gt;&lt;span style=&quot;caret-color: rgb(50, 50, 50); color: rgb(50, 50, 50); font-family: 微软雅黑; font-size: 13px; font-style: normal; font-variant-caps: normal; font-weight: 400; letter-spacing: normal; text-align: center; text-indent: 0px; text-transform: none; word-spacing: 0px; text-size-adjust: auto; -webkit-text-stroke-width: 0px; background-color: rgba(255, 255, 255, 0.01); text-decoration: none; float: none; display: inline !important;&quot;&gt;显示回复消息&lt;/span&gt;" style="rounded=0;whiteSpace=wrap;html=1;" vertex="1" parent="1">
          <mxGeometry x="521" y="580" width="120" height="60" as="geometry" />
        </mxCell>
        <mxCell id="n0jJVnxUDAGsLWo01qbZ-37" value="结束" style="rounded=1;whiteSpace=wrap;html=1;" vertex="1" parent="1">
          <mxGeometry x="521" y="690" width="120" height="60" as="geometry" />
        </mxCell>
        <mxCell id="n0jJVnxUDAGsLWo01qbZ-42" value="" style="edgeStyle=orthogonalEdgeStyle;rounded=0;orthogonalLoop=1;jettySize=auto;html=1;" edge="1" parent="1" source="n0jJVnxUDAGsLWo01qbZ-39" target="n0jJVnxUDAGsLWo01qbZ-41">
          <mxGeometry relative="1" as="geometry" />
        </mxCell>
        <mxCell id="n0jJVnxUDAGsLWo01qbZ-39" value="&lt;span style=&quot;caret-color: rgb(50, 50, 50); color: rgb(50, 50, 50); font-family: 微软雅黑; font-size: 13px; font-style: normal; font-variant-caps: normal; font-weight: 400; letter-spacing: normal; text-align: center; text-indent: 0px; text-transform: none; word-spacing: 0px; text-size-adjust: auto; -webkit-text-stroke-width: 0px; background-color: rgba(255, 255, 255, 0.01); text-decoration: none; float: none; display: inline !important;&quot;&gt;获取response中包含第一组{}在内的字符串 subStr&lt;/span&gt;" style="rounded=0;whiteSpace=wrap;html=1;" vertex="1" parent="1">
          <mxGeometry x="869" y="170" width="120" height="60" as="geometry" />
        </mxCell>
        <mxCell id="n0jJVnxUDAGsLWo01qbZ-45" style="edgeStyle=orthogonalEdgeStyle;rounded=0;orthogonalLoop=1;jettySize=auto;html=1;entryX=0.5;entryY=1;entryDx=0;entryDy=0;strokeColor=#0000CC;" edge="1" parent="1" source="n0jJVnxUDAGsLWo01qbZ-41" target="n0jJVnxUDAGsLWo01qbZ-44">
          <mxGeometry relative="1" as="geometry" />
        </mxCell>
        <mxCell id="n0jJVnxUDAGsLWo01qbZ-54" value="true" style="edgeLabel;html=1;align=center;verticalAlign=middle;resizable=0;points=[];" vertex="1" connectable="0" parent="n0jJVnxUDAGsLWo01qbZ-45">
          <mxGeometry x="-0.3545" y="2" relative="1" as="geometry">
            <mxPoint as="offset" />
          </mxGeometry>
        </mxCell>
        <mxCell id="n0jJVnxUDAGsLWo01qbZ-55" style="edgeStyle=orthogonalEdgeStyle;rounded=0;orthogonalLoop=1;jettySize=auto;html=1;" edge="1" parent="1" source="n0jJVnxUDAGsLWo01qbZ-41" target="n0jJVnxUDAGsLWo01qbZ-28">
          <mxGeometry relative="1" as="geometry">
            <Array as="points">
              <mxPoint x="929" y="420" />
              <mxPoint x="581" y="420" />
            </Array>
          </mxGeometry>
        </mxCell>
        <mxCell id="n0jJVnxUDAGsLWo01qbZ-56" value="false" style="edgeLabel;html=1;align=center;verticalAlign=middle;resizable=0;points=[];" vertex="1" connectable="0" parent="n0jJVnxUDAGsLWo01qbZ-55">
          <mxGeometry x="0.863" y="1" relative="1" as="geometry">
            <mxPoint as="offset" />
          </mxGeometry>
        </mxCell>
        <mxCell id="n0jJVnxUDAGsLWo01qbZ-41" value="&lt;span style=&quot;caret-color: rgb(50, 50, 50); color: rgb(50, 50, 50); font-family: 微软雅黑; font-size: 13px; font-style: normal; font-variant-caps: normal; font-weight: 400; letter-spacing: normal; text-align: center; text-indent: 0px; text-transform: none; word-spacing: 0px; text-size-adjust: auto; -webkit-text-stroke-width: 0px; background-color: rgba(255, 255, 255, 0.01); text-decoration: none; float: none; display: inline !important;&quot;&gt;subStr != nil&lt;/span&gt;" style="rhombus;whiteSpace=wrap;html=1;" vertex="1" parent="1">
          <mxGeometry x="889" y="290" width="80" height="80" as="geometry" />
        </mxCell>
        <mxCell id="n0jJVnxUDAGsLWo01qbZ-46" style="edgeStyle=orthogonalEdgeStyle;rounded=0;orthogonalLoop=1;jettySize=auto;html=1;entryX=0;entryY=0.5;entryDx=0;entryDy=0;" edge="1" parent="1" target="n0jJVnxUDAGsLWo01qbZ-14">
          <mxGeometry relative="1" as="geometry">
            <mxPoint x="810" y="170" as="sourcePoint" />
            <Array as="points">
              <mxPoint x="820" y="170" />
              <mxPoint x="820" y="70" />
            </Array>
          </mxGeometry>
        </mxCell>
        <mxCell id="n0jJVnxUDAGsLWo01qbZ-44" value="&lt;meta charset=&quot;utf-8&quot;&gt;&lt;span style=&quot;caret-color: rgb(50, 50, 50); color: rgb(50, 50, 50); font-family: 微软雅黑; font-size: 13px; font-style: normal; font-variant-caps: normal; font-weight: 400; letter-spacing: normal; text-align: center; text-indent: 0px; text-transform: none; word-spacing: 0px; text-size-adjust: auto; -webkit-text-stroke-width: 0px; background-color: rgba(255, 255, 255, 0.01); text-decoration: none; float: none; display: inline !important;&quot;&gt;转化成数据模型或者字典&lt;/span&gt;" style="rounded=0;whiteSpace=wrap;html=1;" vertex="1" parent="1">
          <mxGeometry x="740" y="170" width="120" height="60" as="geometry" />
        </mxCell>
        <mxCell id="n0jJVnxUDAGsLWo01qbZ-67" value="" style="edgeStyle=orthogonalEdgeStyle;rounded=0;orthogonalLoop=1;jettySize=auto;html=1;" edge="1" parent="1" source="n0jJVnxUDAGsLWo01qbZ-60" target="n0jJVnxUDAGsLWo01qbZ-66">
          <mxGeometry relative="1" as="geometry" />
        </mxCell>
        <mxCell id="n0jJVnxUDAGsLWo01qbZ-60" value="&lt;meta charset=&quot;utf-8&quot;&gt;&lt;span style=&quot;color: rgb(0, 0, 0); font-family: Helvetica; font-size: 12px; font-style: normal; font-variant-ligatures: normal; font-variant-caps: normal; font-weight: 400; letter-spacing: normal; orphans: 2; text-align: start; text-indent: 0px; text-transform: none; widows: 2; word-spacing: 0px; -webkit-text-stroke-width: 0px; caret-color: rgb(0, 0, 0); background-color: rgb(251, 251, 251); text-decoration-thickness: initial; text-decoration-style: initial; text-decoration-color: initial; float: none; display: inline !important;&quot;&gt;场景控制&lt;/span&gt;&lt;div style=&quot;border-color: var(--border-color); color: rgb(0, 0, 0); font-family: Helvetica; font-size: 12px; font-style: normal; font-variant-ligatures: normal; font-variant-caps: normal; font-weight: 400; letter-spacing: normal; orphans: 2; text-align: start; text-indent: 0px; text-transform: none; widows: 2; word-spacing: 0px; -webkit-text-stroke-width: 0px; caret-color: rgb(0, 0, 0); background-color: rgb(251, 251, 251); text-decoration-thickness: initial; text-decoration-style: initial; text-decoration-color: initial;&quot;&gt;target =&amp;nbsp;scene&lt;/div&gt;&lt;div style=&quot;border-color: var(--border-color); color: rgb(0, 0, 0); font-family: Helvetica; font-size: 12px; font-style: normal; font-variant-ligatures: normal; font-variant-caps: normal; font-weight: 400; letter-spacing: normal; orphans: 2; text-align: start; text-indent: 0px; text-transform: none; widows: 2; word-spacing: 0px; -webkit-text-stroke-width: 0px; caret-color: rgb(0, 0, 0); background-color: rgb(251, 251, 251); text-decoration-thickness: initial; text-decoration-style: initial; text-decoration-color: initial;&quot;&gt;{学习、会议、游戏.......}&lt;/div&gt;" style="rounded=0;whiteSpace=wrap;html=1;" vertex="1" parent="1">
          <mxGeometry x="1040" y="210" width="130" height="60" as="geometry" />
        </mxCell>
        <mxCell id="n0jJVnxUDAGsLWo01qbZ-76" style="edgeStyle=orthogonalEdgeStyle;rounded=0;orthogonalLoop=1;jettySize=auto;html=1;entryX=0.5;entryY=0;entryDx=0;entryDy=0;" edge="1" parent="1" source="n0jJVnxUDAGsLWo01qbZ-61" target="n0jJVnxUDAGsLWo01qbZ-74">
          <mxGeometry relative="1" as="geometry" />
        </mxCell>
        <mxCell id="n0jJVnxUDAGsLWo01qbZ-77" style="edgeStyle=orthogonalEdgeStyle;rounded=0;orthogonalLoop=1;jettySize=auto;html=1;exitX=0.5;exitY=1;exitDx=0;exitDy=0;entryX=0.5;entryY=0;entryDx=0;entryDy=0;" edge="1" parent="1" source="n0jJVnxUDAGsLWo01qbZ-61" target="n0jJVnxUDAGsLWo01qbZ-75">
          <mxGeometry relative="1" as="geometry" />
        </mxCell>
        <mxCell id="n0jJVnxUDAGsLWo01qbZ-61" value="&lt;div style=&quot;caret-color: rgb(0, 0, 0); color: rgb(0, 0, 0); font-style: normal; font-variant-caps: normal; font-weight: 400; letter-spacing: normal; text-align: start; text-indent: 0px; text-transform: none; word-spacing: 0px; text-size-adjust: auto; -webkit-text-stroke-width: 0px; text-decoration: none;&quot; class=&quot;mind-clipboard&quot;&gt;&lt;span style=&quot;white-space: pre;&quot;&gt;	&lt;span style=&quot;white-space: pre;&quot;&gt;	&lt;/span&gt;&lt;/span&gt;灯光控制&lt;div&gt;target contain: lamp || light&lt;/div&gt;&lt;/div&gt;" style="rounded=0;whiteSpace=wrap;html=1;" vertex="1" parent="1">
          <mxGeometry x="1260" y="210" width="150" height="60" as="geometry" />
        </mxCell>
        <mxCell id="n0jJVnxUDAGsLWo01qbZ-71" style="edgeStyle=orthogonalEdgeStyle;rounded=0;orthogonalLoop=1;jettySize=auto;html=1;exitX=0.5;exitY=1;exitDx=0;exitDy=0;entryX=0.5;entryY=0;entryDx=0;entryDy=0;" edge="1" parent="1" source="n0jJVnxUDAGsLWo01qbZ-66" target="n0jJVnxUDAGsLWo01qbZ-28">
          <mxGeometry relative="1" as="geometry">
            <Array as="points">
              <mxPoint x="581" y="420" />
            </Array>
          </mxGeometry>
        </mxCell>
        <mxCell id="n0jJVnxUDAGsLWo01qbZ-66" value="value存在?" style="rhombus;whiteSpace=wrap;html=1;" vertex="1" parent="1">
          <mxGeometry x="1065" y="318" width="80" height="80" as="geometry" />
        </mxCell>
        <mxCell id="n0jJVnxUDAGsLWo01qbZ-80" style="edgeStyle=orthogonalEdgeStyle;rounded=0;orthogonalLoop=1;jettySize=auto;html=1;strokeColor=#0000CC;" edge="1" parent="1" source="n0jJVnxUDAGsLWo01qbZ-74" target="n0jJVnxUDAGsLWo01qbZ-79">
          <mxGeometry relative="1" as="geometry" />
        </mxCell>
        <mxCell id="n0jJVnxUDAGsLWo01qbZ-83" value="true" style="edgeLabel;html=1;align=center;verticalAlign=middle;resizable=0;points=[];" vertex="1" connectable="0" parent="n0jJVnxUDAGsLWo01qbZ-80">
          <mxGeometry x="0.3733" y="-1" relative="1" as="geometry">
            <mxPoint as="offset" />
          </mxGeometry>
        </mxCell>
        <mxCell id="n0jJVnxUDAGsLWo01qbZ-81" style="edgeStyle=orthogonalEdgeStyle;rounded=0;orthogonalLoop=1;jettySize=auto;html=1;exitX=0.5;exitY=1;exitDx=0;exitDy=0;entryX=0.5;entryY=0;entryDx=0;entryDy=0;" edge="1" parent="1" source="n0jJVnxUDAGsLWo01qbZ-74" target="n0jJVnxUDAGsLWo01qbZ-78">
          <mxGeometry relative="1" as="geometry" />
        </mxCell>
        <mxCell id="n0jJVnxUDAGsLWo01qbZ-82" value="false" style="edgeLabel;html=1;align=center;verticalAlign=middle;resizable=0;points=[];" vertex="1" connectable="0" parent="n0jJVnxUDAGsLWo01qbZ-81">
          <mxGeometry x="-0.3" y="-1" relative="1" as="geometry">
            <mxPoint as="offset" />
          </mxGeometry>
        </mxCell>
        <mxCell id="n0jJVnxUDAGsLWo01qbZ-74" value="房间过滤&lt;br&gt;location == all rooms" style="rhombus;whiteSpace=wrap;html=1;" vertex="1" parent="1">
          <mxGeometry x="1260" y="320" width="80" height="80" as="geometry" />
        </mxCell>
        <mxCell id="n0jJVnxUDAGsLWo01qbZ-95" style="edgeStyle=orthogonalEdgeStyle;rounded=0;orthogonalLoop=1;jettySize=auto;html=1;exitX=1;exitY=0.5;exitDx=0;exitDy=0;entryX=1;entryY=0.5;entryDx=0;entryDy=0;strokeColor=#0000cc;" edge="1" parent="1" source="n0jJVnxUDAGsLWo01qbZ-75" target="n0jJVnxUDAGsLWo01qbZ-87">
          <mxGeometry relative="1" as="geometry" />
        </mxCell>
        <mxCell id="n0jJVnxUDAGsLWo01qbZ-96" value="true" style="edgeLabel;html=1;align=center;verticalAlign=middle;resizable=0;points=[];" vertex="1" connectable="0" parent="n0jJVnxUDAGsLWo01qbZ-95">
          <mxGeometry x="-0.3778" y="3" relative="1" as="geometry">
            <mxPoint as="offset" />
          </mxGeometry>
        </mxCell>
        <mxCell id="n0jJVnxUDAGsLWo01qbZ-97" style="edgeStyle=orthogonalEdgeStyle;rounded=0;orthogonalLoop=1;jettySize=auto;html=1;entryX=1;entryY=0.5;entryDx=0;entryDy=0;" edge="1" parent="1" source="n0jJVnxUDAGsLWo01qbZ-75" target="n0jJVnxUDAGsLWo01qbZ-86">
          <mxGeometry relative="1" as="geometry" />
        </mxCell>
        <mxCell id="n0jJVnxUDAGsLWo01qbZ-98" value="false" style="edgeLabel;html=1;align=center;verticalAlign=middle;resizable=0;points=[];" vertex="1" connectable="0" parent="n0jJVnxUDAGsLWo01qbZ-97">
          <mxGeometry x="-0.7043" y="-1" relative="1" as="geometry">
            <mxPoint as="offset" />
          </mxGeometry>
        </mxCell>
        <mxCell id="n0jJVnxUDAGsLWo01qbZ-75" value="房间过滤&lt;br&gt;target == all lights" style="rhombus;whiteSpace=wrap;html=1;" vertex="1" parent="1">
          <mxGeometry x="1440" y="320" width="80" height="80" as="geometry" />
        </mxCell>
        <mxCell id="n0jJVnxUDAGsLWo01qbZ-99" style="edgeStyle=orthogonalEdgeStyle;rounded=0;orthogonalLoop=1;jettySize=auto;html=1;entryX=-0.006;entryY=0.59;entryDx=0;entryDy=0;entryPerimeter=0;" edge="1" parent="1" source="n0jJVnxUDAGsLWo01qbZ-78" target="n0jJVnxUDAGsLWo01qbZ-84">
          <mxGeometry relative="1" as="geometry">
            <Array as="points">
              <mxPoint x="1300" y="510" />
              <mxPoint x="1335" y="510" />
              <mxPoint x="1335" y="509" />
            </Array>
          </mxGeometry>
        </mxCell>
        <mxCell id="n0jJVnxUDAGsLWo01qbZ-78" value="具体房间" style="rounded=0;whiteSpace=wrap;html=1;" vertex="1" parent="1">
          <mxGeometry x="1260" y="440" width="80" height="30" as="geometry" />
        </mxCell>
        <mxCell id="n0jJVnxUDAGsLWo01qbZ-100" style="edgeStyle=orthogonalEdgeStyle;rounded=0;orthogonalLoop=1;jettySize=auto;html=1;entryX=0.031;entryY=0.6;entryDx=0;entryDy=0;entryPerimeter=0;" edge="1" parent="1" source="n0jJVnxUDAGsLWo01qbZ-79" target="n0jJVnxUDAGsLWo01qbZ-84">
          <mxGeometry relative="1" as="geometry">
            <Array as="points">
              <mxPoint x="1190" y="510" />
            </Array>
          </mxGeometry>
        </mxCell>
        <mxCell id="n0jJVnxUDAGsLWo01qbZ-79" value="所有房间房间" style="rounded=0;whiteSpace=wrap;html=1;" vertex="1" parent="1">
          <mxGeometry x="1150" y="440" width="80" height="30" as="geometry" />
        </mxCell>
        <mxCell id="n0jJVnxUDAGsLWo01qbZ-84" value="" style="shape=process;whiteSpace=wrap;html=1;backgroundOutline=1;" vertex="1" parent="1">
          <mxGeometry x="1355" y="450" width="160" height="100" as="geometry" />
        </mxCell>
        <mxCell id="n0jJVnxUDAGsLWo01qbZ-85" value="灯的操作" style="rounded=0;whiteSpace=wrap;html=1;" vertex="1" parent="1">
          <mxGeometry x="1375" y="450" width="120" height="20" as="geometry" />
        </mxCell>
        <mxCell id="n0jJVnxUDAGsLWo01qbZ-86" value="具体灯" style="rounded=0;whiteSpace=wrap;html=1;" vertex="1" parent="1">
          <mxGeometry x="1375" y="475" width="80" height="30" as="geometry" />
        </mxCell>
        <mxCell id="n0jJVnxUDAGsLWo01qbZ-101" style="edgeStyle=orthogonalEdgeStyle;rounded=0;orthogonalLoop=1;jettySize=auto;html=1;entryX=1;entryY=0.5;entryDx=0;entryDy=0;exitX=0.5;exitY=1;exitDx=0;exitDy=0;" edge="1" parent="1" source="n0jJVnxUDAGsLWo01qbZ-84" target="n0jJVnxUDAGsLWo01qbZ-35">
          <mxGeometry relative="1" as="geometry">
            <Array as="points">
              <mxPoint x="1435" y="610" />
            </Array>
          </mxGeometry>
        </mxCell>
        <mxCell id="n0jJVnxUDAGsLWo01qbZ-87" value="所有灯" style="rounded=0;whiteSpace=wrap;html=1;" vertex="1" parent="1">
          <mxGeometry x="1375" y="510" width="80" height="30" as="geometry" />
        </mxCell>
      </root>
    </mxGraphModel>
  </diagram>
</mxfile>
